<svg width="746" height="751" viewBox="0 0 746 751" fill="none" xmlns="http://www.w3.org/2000/svg">
<g style="mix-blend-mode:hard-light" filter="url(#filter0_f_2320_388)">
<path d="M4 19C4 10.7157 10.7157 4 19 4H727C735.284 4 742 10.7157 742 19V732C742 740.284 735.284 747 727 747H19C10.7157 747 4 740.284 4 732V19Z" fill="#F0F0F0" fill-opacity="0.67"/>
<path d="M4.5 19C4.5 10.9919 10.9919 4.5 19 4.5H727C735.008 4.5 741.5 10.9919 741.5 19V732C741.5 740.008 735.008 746.5 727 746.5H19C10.9919 746.5 4.5 740.008 4.5 732V19Z" stroke="black"/>
</g>
<defs>
<filter id="filter0_f_2320_388" x="0" y="0" width="746" height="751" filterUnits="userSpaceOnUse" color-interpolation-filters="sRGB">
<feFlood flood-opacity="0" result="BackgroundImageFix"/>
<feBlend mode="normal" in="SourceGraphic" in2="BackgroundImageFix" result="shape"/>
<feGaussianBlur stdDeviation="2" result="effect1_foregroundBlur_2320_388"/>
</filter>
</defs>
</svg>
